<svg width="120" height="60" viewBox="0 0 120 60" fill="none" xmlns="http://www.w3.org/2000/svg">
<path fill-rule="evenodd" clip-rule="evenodd" d="M62.7956 44.8979C62.816 44.0151 62.8371 43.1317 62.8587 42.2476C64.7764 42.2272 69.6433 41.8762 70.9982 42.4334C72.3531 42.9905 73.9383 45.235 74.9728 46.2825C76.0871 47.4053 77.949 49.3907 76.4242 51.4569C75.2606 53.0356 71.4783 52.5295 68.7899 52.5295C61.255 52.5295 57.975 52.692 58.0633 44.8942C56.5078 44.8803 50.715 44.5896 49.8606 45.08C49.011 48.2085 54.2642 47.2715 57.117 47.2251C57.2619 50.1772 56.3342 52.0661 53.8352 52.5257C52.4859 52.7737 45.562 52.6966 44.6863 52.34C44.2886 52.1674 43.9347 51.9077 43.6508 51.5799C43.367 51.2522 43.1604 50.8648 43.0463 50.4465C42.4483 48.1992 44.2833 46.9382 45.2546 45.9668C46.3198 44.9017 47.4666 43.0286 48.9144 42.4334C50.4002 41.8223 55.9562 42.2272 58.0633 42.2476C57.9212 32.3224 59.5491 25.1506 63.6156 19.4033C65.015 17.4299 66.9586 16.0936 68.4742 14.2958C63.5431 16.8031 60.1462 21.9282 58.4449 27.6681C57.9193 29.4371 57.9305 31.3381 57.5609 33.3467H57.4977V33.2204C56.8002 30.6679 56.5424 28.0153 56.7353 25.3762C56.8318 24.0641 57.0453 22.7631 57.3733 21.489C57.7568 20.0152 58.5443 17.1244 60.8659 14.2029C62.1061 12.6571 63.5908 11.3246 65.2611 10.2581C66.0969 9.71761 71.4829 6.67263 72.6428 7.54461L73.4637 9.05921C75.0517 12.3661 75.2681 17.4838 73.7785 21.1101C72.3772 24.5228 69.9711 27.8464 67.2781 30.0073C62.8522 33.5631 61.7267 33.6903 61.7258 41.7434V45.5294C61.8549 46.1646 62.2495 46.7645 62.7352 47.0431C63.4354 47.4461 64.8349 47.2957 65.8926 47.2957C68.0145 47.2957 71.4718 47.5065 69.8681 44.8979H62.7956Z" fill="url(#paint0_linear_2314_125)"/>
<path fill-rule="evenodd" clip-rule="evenodd" d="M44.1867 15.3683C48.8736 15.2755 54.4212 16.8198 56.3639 19.407C55.8335 20.6152 55.4518 21.8834 55.2273 23.1837C54.9273 24.937 54.9895 26.3244 55.0973 28.4314C55.1595 29.647 55.2765 30.9777 55.4761 32.4069H55.413C50.3055 31.9045 45.6883 26.628 44.1821 22.3108C43.6602 20.8138 42.6136 16.4047 44.1867 15.3683Z" fill="url(#paint1_linear_2314_125)"/>
<defs>
<linearGradient id="paint0_linear_2314_125" x1="51.8396" y1="16.6062" x2="70.3231" y2="54.67" gradientUnits="userSpaceOnUse">
<stop stop-color="#97BA2A"/>
<stop offset="1" stop-color="#168E57"/>
</linearGradient>
<linearGradient id="paint1_linear_2314_125" x1="46.266" y1="14.1648" x2="56.467" y2="31.833" gradientUnits="userSpaceOnUse">
<stop stop-color="#9DBB28"/>
<stop offset="1" stop-color="#67A643"/>
</linearGradient>
</defs>
</svg>
